<svg xmlns="http://www.w3.org/2000/svg" viewBox="0 0 20.00883 19.9977"><defs><style>.cls-1{fill:#057bde;}</style></defs><title>notcompound</title><g id="Layer_2" data-name="Layer 2"><g id="Layer_1-2" data-name="Layer 1"><path class="cls-1" d="M14.999,1.34681A9.996,9.996,0,0,0,1.189,14.72694a1.05545,1.05545,0,0,0,1.85.04l1.16-2c0-.01.01-.02.01-.03a.50782.50782,0,0,1,.86.54l-1.75,3.04a1.04455,1.04455,0,0,0,.23,1.32983l.02.02c.05.03.1.07007.15.1001a1.06111,1.06111,0,0,0,1.44-.39014l2.64-4.57007a.03149.03149,0,0,1,.01-.02.51284.51284,0,0,1,.7-.1499.523.523,0,0,1,.16.7002l-2.63,4.5498a1.19449,1.19449,0,0,0-.08.16016,1.05987,1.05987,0,0,0,.63,1.35986l.02.01a1.05969,1.05969,0,0,0,1.27-.47l1.76-3.04c0-.01.01-.02.01-.03a.51043.51043,0,0,1,.86.55005l-1.15,1.99a1.05794,1.05794,0,0,0,.96,1.58008,9.99289,9.99289,0,0,0,4.68-18.65015ZM14.049,16.067a.51206.51206,0,0,1-.50995.50976.554.554,0,0,1-.34-.12988,10.33916,10.33916,0,0,1-3.35-5.3999.51849.51849,0,0,0-.6-.41016.185.185,0,0,1-.07.02,10.39129,10.39129,0,0,1-6.36-.19995.51861.51861,0,0,1-.32-.65015.49228.49228,0,0,1,.23-.27978L13.289,3.4369a.50513.50513,0,0,1,.69.17993.48452.48452,0,0,1,.07.26Z"/></g></g></svg>