<svg xmlns="http://www.w3.org/2000/svg" viewBox="0 0 589.64 589.5"><defs><style>.cls-1{fill:#057bde;}.cls-2{fill:#fff;}</style></defs><title>f 1</title><g id="Layer_2" data-name="Layer 2"><g id="Layer_1-2" data-name="Layer 1"><path class="cls-1" d="M550.1,442.2c-52.89,91.61-147.53,144.09-246,147.28-24.5.79-40.4-25.52-28.14-46.74l33.88-58.69a15.27,15.27,0,0,0-4.65-20.48,15,15,0,0,0-21.11,5.11l-51.79,89.69a31.1,31.1,0,0,1-37.45,13.79l-.72-.26A31.11,31.11,0,0,1,178,527.11l77.48-134.2a15.27,15.27,0,0,0-4.65-20.47,15,15,0,0,0-21.12,5.1L152,512.11a31.11,31.11,0,0,1-46.83,8.46l-.58-.49a31.11,31.11,0,0,1-6.79-39.33l51.57-89.32A15.28,15.28,0,0,0,144.76,371a15,15,0,0,0-21.12,5.11l-34.1,59.06c-12.25,21.22-43,20.61-54.54-1C-11.48,347.24-13.35,239,39.54,147.43,120.94,6.45,301.21-41.86,442.2,39.54S631.49,301.22,550.1,442.2Z"/><path class="cls-2" d="M389.15,484.67c-31.77-28.34-84.3-84.88-99-159.2a15,15,0,0,0-19.6-11.32c-71.7,24.46-146.93,7.24-187.36-6.1a15,15,0,0,1-2.78-27.22L391.62,101.18a15,15,0,0,1,22.49,13v359.3A15,15,0,0,1,389.15,484.67Z"/></g></g></svg>